<?xml version="1.0" encoding="utf-8"?>
<!-- Generator: Adobe Illustrator 27.5.0, SVG Export Plug-In . SVG Version: 6.00 Build 0)  -->
<svg version="1.1" id="Layer_1" xmlns="http://www.w3.org/2000/svg" xmlns:xlink="http://www.w3.org/1999/xlink" x="0px" y="0px"
	 viewBox="0 0 45 45" style="enable-background:new 0 0 45 45;" xml:space="preserve">
<style type="text/css">
	.st0{fill:#303030;}
	.st1{fill:#C9C9C9;}
	.st2{font-family:'Arial-BoldMT';}
	.st3{font-size:17px;}
</style>
<g>
	<path class="st0" d="M6.2,34c-3.2,0-5.7-2.6-5.7-5.7V16.7c0-3.2,2.6-5.7,5.7-5.7h32.5c3.2,0,5.7,2.6,5.7,5.7v11.5
		c0,3.2-2.6,5.7-5.7,5.7H6.2z"/>
	<path class="st1" d="M38.8,11.5c2.9,0,5.2,2.4,5.2,5.2v11.5c0,2.9-2.4,5.2-5.2,5.2H6.2c-2.9,0-5.2-2.4-5.2-5.2V16.7
		c0-2.9,2.4-5.2,5.2-5.2H38.8 M38.8,10.5H6.2c-3.4,0-6.2,2.8-6.2,6.2v11.5c0,3.4,2.8,6.2,6.2,6.2h32.5c3.4,0,6.2-2.8,6.2-6.2V16.7
		C45,13.3,42.2,10.5,38.8,10.5L38.8,10.5z"/>
</g>
<text transform="matrix(1 0 0 1 3.1387 28.5925)" class="st1 st2 st3">ISRT</text>
</svg>
